<svg width="120" height="153" fill="none" xmlns="http://www.w3.org/2000/svg"><path d="M21.3477 5.2031h1.6962v9.0615c0 1.2247-.3691 2.1827-1.1074 2.8741-.7324.6914-1.7109 1.0371-2.9355 1.0371-1.2715 0-2.2617-.3252-2.9707-.9756-.709-.6504-1.0635-1.5615-1.0635-2.7334h1.6875c0 .7324.1992 1.3037.5977 1.7139.4042.4101.9873.6152 1.749.6152.6972 0 1.2597-.2197 1.6875-.6592.4336-.4394.6533-1.0547.6592-1.8457V5.2031zM31.7342 18c-.0938-.1875-.1699-.5215-.2285-1.002-.7559.7852-1.6582 1.1778-2.7071 1.1778-.9375 0-1.708-.2637-2.3115-.791-.5976-.5332-.8965-1.2071-.8965-2.0215 0-.9903.375-1.7578 1.125-2.3028.7559-.5507 1.8164-.8261 3.1817-.8261h1.582v-.7471c0-.5684-.1699-1.0195-.5098-1.3535-.3398-.3399-.8408-.5098-1.5029-.5098-.5801 0-1.0664.1465-1.459.4395-.3926.2929-.5888.6474-.5888 1.0635H25.784c0-.4747.167-.9317.501-1.3711.3398-.4454.7968-.797 1.3711-1.0547.58-.2578 1.2158-.3867 1.9072-.3867 1.0957 0 1.9541.2753 2.5752.8261.6211.545.9433 1.2979.9668 2.2588v4.377c0 .873.1113 1.5674.334 2.083V18h-1.7051zm-2.6983-1.2393c.5098 0 .9932-.1318 1.4502-.3955.4571-.2636.7881-.6064.9932-1.0283v-1.9512h-1.2744c-1.9922 0-2.9883.5831-2.9883 1.7491 0 .5097.1699.9082.5098 1.1953.3398.2871.7763.4306 1.3095.4306zm9.8153-.9668l2.3554-7.3037h1.6612L39.4576 18h-1.2392L34.773 8.4902h1.6612l2.417 7.3037zM50.3627 18c-.0938-.1875-.1699-.5215-.2285-1.002-.7559.7852-1.6582 1.1778-2.7071 1.1778-.9375 0-1.708-.2637-2.3115-.791-.5976-.5332-.8965-1.2071-.8965-2.0215 0-.9903.375-1.7578 1.125-2.3028.7559-.5507 1.8164-.8261 3.1817-.8261h1.582v-.7471c0-.5684-.1699-1.0195-.5098-1.3535-.3398-.3399-.8408-.5098-1.5029-.5098-.5801 0-1.0664.1465-1.459.4395-.3925.2929-.5888.6474-.5888 1.0635h-1.6348c0-.4747.167-.9317.501-1.3711.3398-.4454.7969-.797 1.3711-1.0547.58-.2578 1.2158-.3867 1.9072-.3867 1.0957 0 1.9541.2753 2.5752.8261.6211.545.9434 1.2979.9668 2.2588v4.377c0 .873.1113 1.5674.334 2.083V18h-1.7051zm-2.6982-1.2393c.5097 0 .9931-.1318 1.4501-.3955.4571-.2636.7881-.6064.9932-1.0283v-1.9512h-1.2744c-1.9922 0-2.9883.5831-2.9883 1.7491 0 .5097.1699.9082.5098 1.1953.3398.2871.7763.4306 1.3096.4306zm15.5084-4.4648c-1.4473-.416-2.502-.9258-3.1641-1.5293-.6563-.6094-.9844-1.3594-.9844-2.25 0-1.0078.4014-1.8398 1.2041-2.496.8086-.6622 1.8574-.9933 3.1465-.9933.8789 0 1.6611.17 2.3467.5098.6914.3399 1.2246.8086 1.5996 1.4063.3808.5976.5713 1.251.5713 1.96h-1.6963c0-.7735-.2461-1.38-.7383-1.8194-.4922-.4453-1.1865-.668-2.083-.668-.832 0-1.4824.1846-1.9512.5537-.4629.3633-.6943.8701-.6943 1.5205 0 .5215.2197.9639.6592 1.3272.4453.3574 1.1982.6855 2.2588.9844 1.0664.2988 1.8984.6298 2.4961.9931.6035.3574 1.0488.7764 1.3359 1.2569.293.4804.4394 1.0459.4394 1.6962 0 1.0372-.4043 1.8692-1.2128 2.4961-.8086.6211-1.8897.9317-3.2432.9317-.8789 0-1.6992-.167-2.4609-.501-.7618-.3398-1.3506-.8027-1.7666-1.3887-.4102-.5859-.6153-1.2509-.6153-1.9951h1.6963c0 .7735.2842 1.3858.8525 1.8369.5743.4453 1.3389.668 2.294.668.8906 0 1.5732-.1816 2.0478-.5449.4747-.3633.712-.8584.712-1.4854 0-.6269-.2198-1.1103-.6592-1.4502-.4395-.3457-1.2364-.6855-2.3906-1.0195zm10.6765 4.5527c.5801 0 1.0869-.1757 1.5205-.5273s.6738-.791.7207-1.3184h1.5381c-.0293.545-.2168 1.0635-.5625 1.5557-.3457.4922-.8086.8848-1.3887 1.1777-.5742.293-1.1836.4395-1.8281.4395-1.2949 0-2.3262-.4307-3.0937-1.292-.7618-.8672-1.1426-2.0508-1.1426-3.5508v-.2725c0-.9257.1699-1.749.5097-2.4697.3399-.7207.8262-1.2803 1.459-1.6787.6387-.3984 1.3916-.5976 2.2588-.5976 1.0664 0 1.9512.3193 2.6543.958.709.6386 1.0869 1.4677 1.1338 2.4873h-1.5381c-.0469-.6153-.2812-1.1192-.7031-1.5118-.416-.3984-.9316-.5976-1.5469-.5976-.8261 0-1.4678.2988-1.9248.8965-.4512.5918-.6767 1.4502-.6767 2.5752v.3076c0 1.0957.2255 1.9394.6767 2.5312.4512.5918 1.0957.8877 1.9336.8877zm10.4041-6.8994c-.2461-.041-.5127-.0615-.7998-.0615-1.0664 0-1.79.4541-2.1709 1.3623V18h-1.626V8.4902h1.5821l.0263 1.0987c.5332-.8496 1.2891-1.2744 2.2676-1.2744.3164 0 .5567.041.7207.123v1.5117zM87.723 18h-1.6259V8.4902h1.6259V18zM85.9652 5.9678c0-.2637.0791-.4864.2373-.668.1641-.1816.4043-.2725.7207-.2725s.5567.0909.7207.2725c.1641.1816.2461.4043.2461.668 0 .2636-.082.4834-.2461.6591-.164.1758-.4043.2637-.7207.2637s-.5566-.0879-.7207-.2637c-.1582-.1757-.2373-.3955-.2373-.6591zm12.6014 7.3828c0 1.4473-.3311 2.6133-.9932 3.498-.6621.8848-1.5586 1.3272-2.6894 1.3272-1.1543 0-2.0625-.3662-2.7246-1.0987v4.5791h-1.626V8.4902h1.4854l.0791 1.0547c.6621-.8203 1.582-1.2304 2.7597-1.2304 1.1426 0 2.0449.4306 2.7071 1.292.6679.8613 1.0019 2.0595 1.0019 3.5947v.1494zm-1.626-.1846c0-1.0722-.2285-1.9189-.6855-2.54-.4571-.6211-1.084-.9317-1.8809-.9317-.9844 0-1.7226.4366-2.2148 1.3096v4.544c.4863.8671 1.2304 1.3007 2.2324 1.3007.7793 0 1.3975-.3076 1.8545-.9228.4629-.6211.6943-1.541.6943-2.7598zm6.1064-6.9785v2.3027h1.775v1.2569h-1.775v5.8974c0 .3809.079.668.237.8614.158.1875.428.2812.809.2812.187 0 .445-.0351.773-.1055V18c-.428.1172-.844.1758-1.248.1758-.726 0-1.274-.2197-1.643-.6592-.37-.4395-.554-1.0635-.554-1.8721V9.7471h-1.7315V8.4902h1.7315V6.1875h1.626z" fill="#1A1B22"/><path d="M14 47h92v92H14V47z" fill="#D1D2D6"/><path d="M38.1911 123.882l7.0404-4.26c1.3583 2.408 2.5939 4.445 5.5576 4.445 2.8409 0 4.632-1.111 4.632-5.434V89.2373h8.6456v29.5187c0 8.954-5.2489 13.03-12.907 13.03-6.9162 0-10.9309-3.582-12.9688-7.904M68.7603 122.955l7.0396-4.076c1.8531 3.026 4.2616 5.249 8.5225 5.249 3.5823 0 5.8667-1.791 5.8667-4.261 0-2.965-2.3466-4.015-6.2991-5.743l-2.1608-.927c-6.2378-2.655-10.3756-5.99-10.3756-13.03 0-6.4846 4.9404-11.4253 12.6603-11.4253 5.4963 0 9.4486 1.9146 12.2891 6.9169l-6.7315 4.3227c-1.4822-2.6553-3.0874-3.7049-5.5575-3.7049-2.532 0-4.1378 1.6056-4.1378 3.7049 0 2.5937 1.6058 3.6437 5.3107 5.2497l2.1613.926c7.349 3.15 11.4869 6.361 11.4869 13.586 0 7.782-6.1138 12.043-14.3272 12.043-8.0283 0-13.2159-3.829-15.7475-8.831" fill="#F5F6F7"/></svg>